<svg id="visual" viewBox="0 0 900 450" width="900" height="450" xmlns="http://www.w3.org/2000/svg" xmlns:xlink="http://www.w3.org/1999/xlink" version="1.1"><g stroke-width="1" stroke-linejoin="bevel"><path d="M447.5 190L457.5 172L404.5 181Z" fill="#2a2a2a" stroke="#2a2a2a"></path><path d="M447.5 190L485.5 164L457.5 172Z" fill="#1c1c1c" stroke="#1c1c1c"></path><path d="M441.5 107L386.6 127L404.5 181Z" fill="#282828" stroke="#282828"></path><path d="M441.5 107L404.5 181L457.5 172Z" fill="#1d1d1d" stroke="#1d1d1d"></path><path d="M485.5 164L441.5 107L457.5 172Z" fill="#202020" stroke="#202020"></path><path d="M386.6 127L359.6 182L404.5 181Z" fill="#272727" stroke="#272727"></path><path d="M404.5 181L423.5 256L447.5 190Z" fill="#272727" stroke="#272727"></path><path d="M441.5 107L425.5 96L386.6 127Z" fill="#2a2a2a" stroke="#2a2a2a"></path><path d="M359.6 182L357.6 187L404.5 181Z" fill="#1d1d1d" stroke="#1d1d1d"></path><path d="M485.5 164L487.4 103L441.5 107Z" fill="#282828" stroke="#282828"></path><path d="M441.5 107L426.5 58L425.5 96Z" fill="#222222" stroke="#222222"></path><path d="M399.6 263L423.5 256L404.5 181Z" fill="#222222" stroke="#222222"></path><path d="M557.4 209L553.4 193L485.5 164Z" fill="#242424" stroke="#242424"></path><path d="M357.6 187L399.6 263L404.5 181Z" fill="#222222" stroke="#222222"></path><path d="M426.5 58L373.5 80L425.5 96Z" fill="#1c1c1c" stroke="#1c1c1c"></path><path d="M425.5 96L373.5 80L386.6 127Z" fill="#242424" stroke="#242424"></path><path d="M386.6 127L325.6 115L359.6 182Z" fill="#1c1c1c" stroke="#1c1c1c"></path><path d="M265.7 192L334.6 214L357.6 187Z" fill="#242424" stroke="#242424"></path><path d="M546.4 89L488.4 81L487.4 103Z" fill="#1d1d1d" stroke="#1d1d1d"></path><path d="M487.4 103L488.4 81L441.5 107Z" fill="#2a2a2a" stroke="#2a2a2a"></path><path d="M265.7 192L357.6 187L359.6 182Z" fill="#1d1d1d" stroke="#1d1d1d"></path><path d="M357.6 187L334.6 214L399.6 263Z" fill="#2a2a2a" stroke="#2a2a2a"></path><path d="M488.4 81L426.5 58L441.5 107Z" fill="#282828" stroke="#282828"></path><path d="M553.4 193L532.4 121L485.5 164Z" fill="#2a2a2a" stroke="#2a2a2a"></path><path d="M485.5 164L532.4 121L487.4 103Z" fill="#202020" stroke="#202020"></path><path d="M373.5 80L325.6 115L386.6 127Z" fill="#1f1f1f" stroke="#1f1f1f"></path><path d="M557.4 209L485.5 164L524.5 272Z" fill="#1f1f1f" stroke="#1f1f1f"></path><path d="M373.5 80L350.6 69L325.6 115Z" fill="#242424" stroke="#242424"></path><path d="M392.5 0L350.6 69L373.5 80Z" fill="#242424" stroke="#242424"></path><path d="M524.5 272L485.5 164L447.5 190Z" fill="#1a1a1a" stroke="#1a1a1a"></path><path d="M433.5 309L524.5 272L423.5 256Z" fill="#1c1c1c" stroke="#1c1c1c"></path><path d="M423.5 256L524.5 272L447.5 190Z" fill="#242424" stroke="#242424"></path><path d="M424.5 317L433.5 309L399.6 263Z" fill="#2a2a2a" stroke="#2a2a2a"></path><path d="M399.6 263L433.5 309L423.5 256Z" fill="#242424" stroke="#242424"></path><path d="M566.4 101L546.4 89L532.4 121Z" fill="#1f1f1f" stroke="#1f1f1f"></path><path d="M532.4 121L546.4 89L487.4 103Z" fill="#2a2a2a" stroke="#2a2a2a"></path><path d="M488.4 81L460.5 0L426.5 58Z" fill="#1c1c1c" stroke="#1c1c1c"></path><path d="M566.4 101L532.4 121L583.3 131Z" fill="#1a1a1a" stroke="#1a1a1a"></path><path d="M334.6 214L349.6 285L399.6 263Z" fill="#252525" stroke="#252525"></path><path d="M350.6 69L298.6 101L325.6 115Z" fill="#1c1c1c" stroke="#1c1c1c"></path><path d="M325.6 115L265.7 192L359.6 182Z" fill="#202020" stroke="#202020"></path><path d="M334.6 214L269.6 283L349.6 285Z" fill="#222222" stroke="#222222"></path><path d="M349.6 285L424.5 317L399.6 263Z" fill="#1f1f1f" stroke="#1f1f1f"></path><path d="M433.5 309L482.4 342L524.5 272Z" fill="#272727" stroke="#272727"></path><path d="M524.5 272L571.4 216L557.4 209Z" fill="#222222" stroke="#222222"></path><path d="M557.4 209L571.4 216L553.4 193Z" fill="#282828" stroke="#282828"></path><path d="M266.7 47L294.6 100L298.6 101Z" fill="#222222" stroke="#222222"></path><path d="M252.7 122L265.7 192L325.6 115Z" fill="#282828" stroke="#282828"></path><path d="M583.3 131L532.4 121L553.4 193Z" fill="#202020" stroke="#202020"></path><path d="M617.3 213L583.3 131L553.4 193Z" fill="#1a1a1a" stroke="#1a1a1a"></path><path d="M583.3 131L579.4 103L566.4 101Z" fill="#222222" stroke="#222222"></path><path d="M566.4 101L579.4 103L546.4 89Z" fill="#282828" stroke="#282828"></path><path d="M252.7 122L325.6 115L298.6 101Z" fill="#242424" stroke="#242424"></path><path d="M534.4 0L488.4 81L546.4 89Z" fill="#1f1f1f" stroke="#1f1f1f"></path><path d="M534.4 0L460.5 0L488.4 81Z" fill="#222222" stroke="#222222"></path><path d="M426.5 58L392.5 0L373.5 80Z" fill="#202020" stroke="#202020"></path><path d="M350.6 69L266.7 47L298.6 101Z" fill="#1c1c1c" stroke="#1c1c1c"></path><path d="M460.5 0L392.5 0L426.5 58Z" fill="#1f1f1f" stroke="#1f1f1f"></path><path d="M383.5 361L457.5 345L424.5 317Z" fill="#1d1d1d" stroke="#1d1d1d"></path><path d="M424.5 317L457.5 345L433.5 309Z" fill="#252525" stroke="#252525"></path><path d="M457.5 345L482.4 342L433.5 309Z" fill="#272727" stroke="#272727"></path><path d="M631.4 281L617.3 213L571.4 216Z" fill="#272727" stroke="#272727"></path><path d="M266.7 47L252.7 122L294.6 100Z" fill="#1f1f1f" stroke="#1f1f1f"></path><path d="M294.6 100L252.7 122L298.6 101Z" fill="#272727" stroke="#272727"></path><path d="M482.4 342L522.5 326L524.5 272Z" fill="#1f1f1f" stroke="#1f1f1f"></path><path d="M392.5 0L357.6 0L350.6 69Z" fill="#282828" stroke="#282828"></path><path d="M357.6 0L331.6 9L350.6 69Z" fill="#282828" stroke="#282828"></path><path d="M631.4 281L571.4 216L524.5 272Z" fill="#202020" stroke="#202020"></path><path d="M571.4 216L617.3 213L553.4 193Z" fill="#202020" stroke="#202020"></path><path d="M583.3 131L688.2 107L579.4 103Z" fill="#282828" stroke="#282828"></path><path d="M202.8 261L248.7 244L179.8 184Z" fill="#222222" stroke="#222222"></path><path d="M265.7 192L248.7 244L334.6 214Z" fill="#1f1f1f" stroke="#1f1f1f"></path><path d="M349.6 285L383.5 361L424.5 317Z" fill="#1a1a1a" stroke="#1a1a1a"></path><path d="M248.7 244L269.6 283L334.6 214Z" fill="#272727" stroke="#272727"></path><path d="M344.6 352L383.5 361L349.6 285Z" fill="#252525" stroke="#252525"></path><path d="M494.4 442L532.4 345L482.4 342Z" fill="#1c1c1c" stroke="#1c1c1c"></path><path d="M626.4 0L534.4 0L546.4 89Z" fill="#242424" stroke="#242424"></path><path d="M266.7 47L232.8 127L252.7 122Z" fill="#2a2a2a" stroke="#2a2a2a"></path><path d="M252.7 122L232.8 127L265.7 192Z" fill="#202020" stroke="#202020"></path><path d="M269.6 283L344.6 352L349.6 285Z" fill="#1d1d1d" stroke="#1d1d1d"></path><path d="M331.6 9L266.7 47L350.6 69Z" fill="#1c1c1c" stroke="#1c1c1c"></path><path d="M482.4 342L532.4 345L522.5 326Z" fill="#242424" stroke="#242424"></path><path d="M599.4 342L631.4 281L524.5 272Z" fill="#222222" stroke="#222222"></path><path d="M494.4 442L482.4 342L457.5 345Z" fill="#2a2a2a" stroke="#2a2a2a"></path><path d="M617.3 213L640.2 165L583.3 131Z" fill="#1d1d1d" stroke="#1d1d1d"></path><path d="M579.4 103L626.4 0L546.4 89Z" fill="#202020" stroke="#202020"></path><path d="M640.2 266L638.3 205L617.3 213Z" fill="#242424" stroke="#242424"></path><path d="M617.3 213L638.3 205L640.2 165Z" fill="#202020" stroke="#202020"></path><path d="M173.8 67L216.7 133L232.8 127Z" fill="#282828" stroke="#282828"></path><path d="M232.8 127L216.7 133L265.7 192Z" fill="#202020" stroke="#202020"></path><path d="M276.7 0L259.8 22L266.7 47Z" fill="#1f1f1f" stroke="#1f1f1f"></path><path d="M266.7 47L173.8 67L232.8 127Z" fill="#1c1c1c" stroke="#1c1c1c"></path><path d="M276.7 0L266.7 47L331.6 9Z" fill="#242424" stroke="#242424"></path><path d="M357.6 0L276.7 0L331.6 9Z" fill="#282828" stroke="#282828"></path><path d="M236.7 297L247.8 306L269.6 283Z" fill="#1a1a1a" stroke="#1a1a1a"></path><path d="M269.6 283L260.7 358L344.6 352Z" fill="#242424" stroke="#242424"></path><path d="M236.7 297L269.6 283L248.7 244Z" fill="#252525" stroke="#252525"></path><path d="M577.4 347L524.5 272L522.5 326Z" fill="#222222" stroke="#222222"></path><path d="M532.4 345L577.4 347L522.5 326Z" fill="#1f1f1f" stroke="#1f1f1f"></path><path d="M554.4 450L577.4 347L532.4 345Z" fill="#1c1c1c" stroke="#1c1c1c"></path><path d="M202.8 261L236.7 297L248.7 244Z" fill="#1a1a1a" stroke="#1a1a1a"></path><path d="M631.4 281L640.2 266L617.3 213Z" fill="#1d1d1d" stroke="#1d1d1d"></path><path d="M638.3 205L668.3 156L640.2 165Z" fill="#202020" stroke="#202020"></path><path d="M276.7 0L266.6 0L259.8 22Z" fill="#1c1c1c" stroke="#1c1c1c"></path><path d="M169.8 136L179.8 184L216.7 133Z" fill="#242424" stroke="#242424"></path><path d="M731.2 240L668.3 156L638.3 205Z" fill="#282828" stroke="#282828"></path><path d="M640.2 165L688.2 107L583.3 131Z" fill="#282828" stroke="#282828"></path><path d="M378.6 424L424.5 408L383.5 361Z" fill="#282828" stroke="#282828"></path><path d="M383.5 361L424.5 408L457.5 345Z" fill="#272727" stroke="#272727"></path><path d="M340.6 393L383.5 361L344.6 352Z" fill="#222222" stroke="#222222"></path><path d="M260.7 358L269.6 283L247.8 306Z" fill="#242424" stroke="#242424"></path><path d="M275.6 374L340.6 393L344.6 352Z" fill="#1a1a1a" stroke="#1a1a1a"></path><path d="M631.4 281L648.3 302L640.2 266Z" fill="#272727" stroke="#272727"></path><path d="M577.4 347L599.4 342L524.5 272Z" fill="#252525" stroke="#252525"></path><path d="M616.3 360L599.4 342L577.4 347Z" fill="#252525" stroke="#252525"></path><path d="M179.8 184L248.7 244L265.7 192Z" fill="#2a2a2a" stroke="#2a2a2a"></path><path d="M173.8 67L266.7 47L259.8 22Z" fill="#222222" stroke="#222222"></path><path d="M216.7 133L179.8 184L265.7 192Z" fill="#272727" stroke="#272727"></path><path d="M266.6 0L239.8 0L259.8 22Z" fill="#1c1c1c" stroke="#1c1c1c"></path><path d="M219.7 353L247.8 306L236.7 297Z" fill="#272727" stroke="#272727"></path><path d="M219.7 353L260.7 358L247.8 306Z" fill="#1f1f1f" stroke="#1f1f1f"></path><path d="M599.4 342L648.3 302L631.4 281Z" fill="#282828" stroke="#282828"></path><path d="M640.2 266L731.2 240L638.3 205Z" fill="#1c1c1c" stroke="#1c1c1c"></path><path d="M260.7 358L275.6 374L344.6 352Z" fill="#1d1d1d" stroke="#1d1d1d"></path><path d="M633.3 0L626.4 0L579.4 103Z" fill="#1f1f1f" stroke="#1f1f1f"></path><path d="M344.6 450L378.6 424L340.6 393Z" fill="#202020" stroke="#202020"></path><path d="M340.6 393L378.6 424L383.5 361Z" fill="#272727" stroke="#272727"></path><path d="M142.9 194L169.8 199L179.8 184Z" fill="#1a1a1a" stroke="#1a1a1a"></path><path d="M179.8 184L169.8 199L202.8 261Z" fill="#242424" stroke="#242424"></path><path d="M151.9 105L169.8 136L216.7 133Z" fill="#1f1f1f" stroke="#1f1f1f"></path><path d="M698.2 84L633.3 0L579.4 103Z" fill="#1f1f1f" stroke="#1f1f1f"></path><path d="M202.8 261L195.8 292L236.7 297Z" fill="#2a2a2a" stroke="#2a2a2a"></path><path d="M260.7 358L214.8 367L275.6 374Z" fill="#1c1c1c" stroke="#1c1c1c"></path><path d="M165.8 230L195.8 292L202.8 261Z" fill="#1f1f1f" stroke="#1f1f1f"></path><path d="M747.1 155L688.2 107L668.3 156Z" fill="#252525" stroke="#252525"></path><path d="M668.3 156L688.2 107L640.2 165Z" fill="#222222" stroke="#222222"></path><path d="M599.4 342L622.4 357L648.3 302Z" fill="#1c1c1c" stroke="#1c1c1c"></path><path d="M578.4 450L616.3 360L577.4 347Z" fill="#282828" stroke="#282828"></path><path d="M494.4 442L457.5 345L424.5 408Z" fill="#272727" stroke="#272727"></path><path d="M616.3 360L622.4 357L599.4 342Z" fill="#1c1c1c" stroke="#1c1c1c"></path><path d="M142.9 194L165.8 230L169.8 199Z" fill="#1a1a1a" stroke="#1a1a1a"></path><path d="M169.8 199L165.8 230L202.8 261Z" fill="#272727" stroke="#272727"></path><path d="M698.2 84L647.2 0L633.3 0Z" fill="#1f1f1f" stroke="#1f1f1f"></path><path d="M203.8 0L173.8 67L259.8 22Z" fill="#272727" stroke="#272727"></path><path d="M214.8 367L219.7 353L133.9 346Z" fill="#252525" stroke="#252525"></path><path d="M195.8 292L219.7 353L236.7 297Z" fill="#282828" stroke="#282828"></path><path d="M331.6 450L344.6 450L340.6 393Z" fill="#242424" stroke="#242424"></path><path d="M474.5 450L494.4 442L424.5 408Z" fill="#272727" stroke="#272727"></path><path d="M640.3 438L680.2 383L622.4 357Z" fill="#1a1a1a" stroke="#1a1a1a"></path><path d="M770.2 128L698.2 84L688.2 107Z" fill="#282828" stroke="#282828"></path><path d="M688.2 107L698.2 84L579.4 103Z" fill="#1a1a1a" stroke="#1a1a1a"></path><path d="M239.8 0L203.8 0L259.8 22Z" fill="#1f1f1f" stroke="#1f1f1f"></path><path d="M102.9 156L151.9 105L109.9 63Z" fill="#242424" stroke="#242424"></path><path d="M173.8 67L151.9 105L216.7 133Z" fill="#1a1a1a" stroke="#1a1a1a"></path><path d="M136.8 166L142.9 194L179.8 184Z" fill="#202020" stroke="#202020"></path><path d="M378.6 424L474.5 450L424.5 408Z" fill="#252525" stroke="#252525"></path><path d="M474.5 450L479.5 450L494.4 442Z" fill="#1f1f1f" stroke="#1f1f1f"></path><path d="M136.8 166L179.8 184L169.8 136Z" fill="#282828" stroke="#282828"></path><path d="M133.9 346L219.7 353L195.8 292Z" fill="#1c1c1c" stroke="#1c1c1c"></path><path d="M124.9 267L195.8 292L165.8 230Z" fill="#282828" stroke="#282828"></path><path d="M219.7 353L214.8 367L260.7 358Z" fill="#202020" stroke="#202020"></path><path d="M151.9 105L136.8 166L169.8 136Z" fill="#1f1f1f" stroke="#1f1f1f"></path><path d="M331.6 450L340.6 393L309.7 450Z" fill="#1d1d1d" stroke="#1d1d1d"></path><path d="M378.6 424L344.6 450L474.5 450Z" fill="#252525" stroke="#252525"></path><path d="M309.7 450L340.6 393L275.6 374Z" fill="#222222" stroke="#222222"></path><path d="M200.8 450L309.7 450L275.6 374Z" fill="#272727" stroke="#272727"></path><path d="M695.2 10L686.3 1L647.2 0Z" fill="#222222" stroke="#222222"></path><path d="M479.5 450L554.4 450L494.4 442Z" fill="#1f1f1f" stroke="#1f1f1f"></path><path d="M494.4 442L554.4 450L532.4 345Z" fill="#282828" stroke="#282828"></path><path d="M716.2 322L708.2 302L648.3 302Z" fill="#202020" stroke="#202020"></path><path d="M648.3 302L708.2 302L640.2 266Z" fill="#282828" stroke="#282828"></path><path d="M716.2 322L648.3 302L680.2 383Z" fill="#282828" stroke="#282828"></path><path d="M698.2 84L695.2 10L647.2 0Z" fill="#242424" stroke="#242424"></path><path d="M739.2 51L695.2 10L698.2 84Z" fill="#2a2a2a" stroke="#2a2a2a"></path><path d="M708.2 302L731.2 240L640.2 266Z" fill="#2a2a2a" stroke="#2a2a2a"></path><path d="M731.2 240L747.1 155L668.3 156Z" fill="#2a2a2a" stroke="#2a2a2a"></path><path d="M554.4 450L578.4 450L577.4 347Z" fill="#272727" stroke="#272727"></path><path d="M90.9 238L165.8 230L142.9 194Z" fill="#2a2a2a" stroke="#2a2a2a"></path><path d="M90.9 238L124.9 267L165.8 230Z" fill="#222222" stroke="#222222"></path><path d="M680.2 383L648.3 302L622.4 357Z" fill="#2a2a2a" stroke="#2a2a2a"></path><path d="M708.2 302L757.1 295L731.2 240Z" fill="#242424" stroke="#242424"></path><path d="M787.2 123L770.2 128L816.1 142Z" fill="#1f1f1f" stroke="#1f1f1f"></path><path d="M151.9 105L102.9 156L136.8 166Z" fill="#252525" stroke="#252525"></path><path d="M136.8 166L87.9 176L142.9 194Z" fill="#282828" stroke="#282828"></path><path d="M109.9 63L151.9 105L173.8 67Z" fill="#202020" stroke="#202020"></path><path d="M640.3 438L622.4 357L616.3 360Z" fill="#242424" stroke="#242424"></path><path d="M770.2 128L739.2 51L698.2 84Z" fill="#1f1f1f" stroke="#1f1f1f"></path><path d="M695.2 10L765.2 0L686.3 1Z" fill="#242424" stroke="#242424"></path><path d="M203.8 0L132.8 14L173.8 67Z" fill="#1d1d1d" stroke="#1d1d1d"></path><path d="M132.8 14L109.9 63L173.8 67Z" fill="#252525" stroke="#252525"></path><path d="M133.9 346L195.8 414L214.8 367Z" fill="#2a2a2a" stroke="#2a2a2a"></path><path d="M214.8 367L195.8 414L275.6 374Z" fill="#202020" stroke="#202020"></path><path d="M102.9 156L87.9 176L136.8 166Z" fill="#272727" stroke="#272727"></path><path d="M64.9 145L87.9 176L102.9 156Z" fill="#282828" stroke="#282828"></path><path d="M578.4 450L640.3 438L616.3 360Z" fill="#202020" stroke="#202020"></path><path d="M770.2 128L747.1 155L816.1 142Z" fill="#202020" stroke="#202020"></path><path d="M747.1 155L770.2 128L688.2 107Z" fill="#1d1d1d" stroke="#1d1d1d"></path><path d="M124.9 267L133.9 346L195.8 292Z" fill="#282828" stroke="#282828"></path><path d="M109.8 326L133.9 346L124.9 267Z" fill="#1f1f1f" stroke="#1f1f1f"></path><path d="M87.9 176L90.9 238L142.9 194Z" fill="#202020" stroke="#202020"></path><path d="M757.2 340L757.1 295L716.2 322Z" fill="#222222" stroke="#222222"></path><path d="M716.2 322L757.1 295L708.2 302Z" fill="#1c1c1c" stroke="#1c1c1c"></path><path d="M733.2 375L716.2 322L680.2 383Z" fill="#242424" stroke="#242424"></path><path d="M578.4 450L645.2 450L640.3 438Z" fill="#222222" stroke="#222222"></path><path d="M640.3 438L676.3 450L680.2 383Z" fill="#242424" stroke="#242424"></path><path d="M71.9 279L109.8 326L124.9 267Z" fill="#1d1d1d" stroke="#1d1d1d"></path><path d="M199.8 450L200.8 450L195.8 414Z" fill="#1f1f1f" stroke="#1f1f1f"></path><path d="M787.2 226L747.1 155L731.2 240Z" fill="#242424" stroke="#242424"></path><path d="M770.2 128L808.1 87L739.2 51Z" fill="#1a1a1a" stroke="#1a1a1a"></path><path d="M757.1 295L787.2 226L731.2 240Z" fill="#252525" stroke="#252525"></path><path d="M199.8 450L195.8 414L170.8 434Z" fill="#222222" stroke="#222222"></path><path d="M195.8 414L200.8 450L275.6 374Z" fill="#1d1d1d" stroke="#1d1d1d"></path><path d="M170.8 434L195.8 414L133.9 346Z" fill="#1d1d1d" stroke="#1d1d1d"></path><path d="M68.9 69L64.9 145L109.9 63Z" fill="#1a1a1a" stroke="#1a1a1a"></path><path d="M109.9 63L64.9 145L102.9 156Z" fill="#1f1f1f" stroke="#1f1f1f"></path><path d="M87.9 176L0 234L90.9 238Z" fill="#252525" stroke="#252525"></path><path d="M71.9 353L106.9 340L109.8 326Z" fill="#252525" stroke="#252525"></path><path d="M71.9 279L124.9 267L90.9 238Z" fill="#242424" stroke="#242424"></path><path d="M109.8 326L106.9 340L133.9 346Z" fill="#222222" stroke="#222222"></path><path d="M676.3 450L725.2 386L680.2 383Z" fill="#252525" stroke="#252525"></path><path d="M757.1 295L807.1 233L787.2 226Z" fill="#242424" stroke="#242424"></path><path d="M725.2 386L733.2 375L680.2 383Z" fill="#282828" stroke="#282828"></path><path d="M733.2 375L757.2 340L716.2 322Z" fill="#272727" stroke="#272727"></path><path d="M138.9 450L170.8 434L85.9 394Z" fill="#272727" stroke="#272727"></path><path d="M80.9 8L68.9 69L109.9 63Z" fill="#1f1f1f" stroke="#1f1f1f"></path><path d="M645.2 450L676.3 450L640.3 438Z" fill="#272727" stroke="#272727"></path><path d="M0 234L71.9 279L90.9 238Z" fill="#1d1d1d" stroke="#1d1d1d"></path><path d="M796.1 0L765.2 0L739.2 51Z" fill="#222222" stroke="#222222"></path><path d="M739.2 51L765.2 0L695.2 10Z" fill="#2a2a2a" stroke="#2a2a2a"></path><path d="M686.3 1L765.2 0L647.2 0Z" fill="#272727" stroke="#272727"></path><path d="M807.1 343L807.1 233L757.1 295Z" fill="#2a2a2a" stroke="#2a2a2a"></path><path d="M787.2 226L816.1 142L747.1 155Z" fill="#2a2a2a" stroke="#2a2a2a"></path><path d="M787.2 123L808.1 87L770.2 128Z" fill="#1f1f1f" stroke="#1f1f1f"></path><path d="M72.9 0L80.9 8L132.8 14Z" fill="#1d1d1d" stroke="#1d1d1d"></path><path d="M132.8 14L80.9 8L109.9 63Z" fill="#252525" stroke="#252525"></path><path d="M816.1 142L810.1 99L787.2 123Z" fill="#1a1a1a" stroke="#1a1a1a"></path><path d="M810.1 99L808.1 87L787.2 123Z" fill="#282828" stroke="#282828"></path><path d="M834.1 217L816.1 142L787.2 226Z" fill="#1a1a1a" stroke="#1a1a1a"></path><path d="M839.1 25L813.1 76L900 65Z" fill="#1c1c1c" stroke="#1c1c1c"></path><path d="M810.1 99L813.1 76L808.1 87Z" fill="#202020" stroke="#202020"></path><path d="M808.1 87L813.1 76L739.2 51Z" fill="#202020" stroke="#202020"></path><path d="M203.8 0L72.9 0L132.8 14Z" fill="#222222" stroke="#222222"></path><path d="M80.9 8L40.9 0L68.9 69Z" fill="#222222" stroke="#222222"></path><path d="M71.9 279L71.9 353L109.8 326Z" fill="#1c1c1c" stroke="#1c1c1c"></path><path d="M106.9 340L85.9 394L133.9 346Z" fill="#242424" stroke="#242424"></path><path d="M0 306L71.9 353L71.9 279Z" fill="#272727" stroke="#272727"></path><path d="M813.1 76L796.1 0L739.2 51Z" fill="#2a2a2a" stroke="#2a2a2a"></path><path d="M85.9 394L170.8 434L133.9 346Z" fill="#242424" stroke="#242424"></path><path d="M170.8 434L138.9 450L199.8 450Z" fill="#1a1a1a" stroke="#1a1a1a"></path><path d="M813.1 76L800.1 0L796.1 0Z" fill="#1f1f1f" stroke="#1f1f1f"></path><path d="M864.1 264L834.1 217L807.1 233Z" fill="#1c1c1c" stroke="#1c1c1c"></path><path d="M807.1 233L834.1 217L787.2 226Z" fill="#1f1f1f" stroke="#1f1f1f"></path><path d="M885.1 127L813.1 76L810.1 99Z" fill="#1d1d1d" stroke="#1d1d1d"></path><path d="M71.9 353L85.9 394L106.9 340Z" fill="#1a1a1a" stroke="#1a1a1a"></path><path d="M733.2 375L773.1 400L757.2 340Z" fill="#252525" stroke="#252525"></path><path d="M757.2 340L807.1 343L757.1 295Z" fill="#282828" stroke="#282828"></path><path d="M725.2 386L773.1 400L733.2 375Z" fill="#252525" stroke="#252525"></path><path d="M763.2 450L773.1 400L725.2 386Z" fill="#202020" stroke="#202020"></path><path d="M801.1 372L807.1 343L757.2 340Z" fill="#1c1c1c" stroke="#1c1c1c"></path><path d="M72.9 0L40.9 0L80.9 8Z" fill="#2a2a2a" stroke="#2a2a2a"></path><path d="M0 79L0 169L64.9 145Z" fill="#222222" stroke="#222222"></path><path d="M64.9 145L0 169L87.9 176Z" fill="#252525" stroke="#252525"></path><path d="M773.1 400L801.1 372L757.2 340Z" fill="#1f1f1f" stroke="#1f1f1f"></path><path d="M807.1 343L864.1 264L807.1 233Z" fill="#282828" stroke="#282828"></path><path d="M0 79L64.9 145L68.9 69Z" fill="#282828" stroke="#282828"></path><path d="M0 405L89.9 436L85.9 394Z" fill="#1a1a1a" stroke="#1a1a1a"></path><path d="M0 405L85.9 394L71.9 353Z" fill="#202020" stroke="#202020"></path><path d="M85.9 394L89.9 436L138.9 450Z" fill="#202020" stroke="#202020"></path><path d="M885.1 127L810.1 99L816.1 142Z" fill="#1d1d1d" stroke="#1d1d1d"></path><path d="M813.1 76L839.1 25L800.1 0Z" fill="#2a2a2a" stroke="#2a2a2a"></path><path d="M0 169L0 234L87.9 176Z" fill="#242424" stroke="#242424"></path><path d="M676.3 450L763.2 450L725.2 386Z" fill="#252525" stroke="#252525"></path><path d="M817.1 450L849.1 368L801.1 372Z" fill="#282828" stroke="#282828"></path><path d="M0 11L0 79L68.9 69Z" fill="#1d1d1d" stroke="#1d1d1d"></path><path d="M0 234L0 267L71.9 279Z" fill="#222222" stroke="#222222"></path><path d="M0 267L0 280L71.9 279Z" fill="#1d1d1d" stroke="#1d1d1d"></path><path d="M837.1 357L864.1 264L807.1 343Z" fill="#1a1a1a" stroke="#1a1a1a"></path><path d="M834.1 217L885.1 127L816.1 142Z" fill="#1f1f1f" stroke="#1f1f1f"></path><path d="M837.1 357L807.1 343L801.1 372Z" fill="#202020" stroke="#202020"></path><path d="M849.1 368L837.1 357L801.1 372Z" fill="#242424" stroke="#242424"></path><path d="M0 280L0 306L71.9 279Z" fill="#272727" stroke="#272727"></path><path d="M900 129L885.1 127L900 222Z" fill="#252525" stroke="#252525"></path><path d="M40.9 0L0 11L68.9 69Z" fill="#1c1c1c" stroke="#1c1c1c"></path><path d="M40.9 0L0 0L0 11Z" fill="#222222" stroke="#222222"></path><path d="M816.1 450L801.1 372L773.1 400Z" fill="#1f1f1f" stroke="#1f1f1f"></path><path d="M837.1 357L900 317L864.1 264Z" fill="#2a2a2a" stroke="#2a2a2a"></path><path d="M900 222L885.1 127L834.1 217Z" fill="#282828" stroke="#282828"></path><path d="M900 222L834.1 217L900 228Z" fill="#252525" stroke="#252525"></path><path d="M885.1 127L900 65L813.1 76Z" fill="#1a1a1a" stroke="#1a1a1a"></path><path d="M900 228L834.1 217L864.1 264Z" fill="#252525" stroke="#252525"></path><path d="M900 317L900 228L864.1 264Z" fill="#222222" stroke="#222222"></path><path d="M763.2 450L816.1 450L773.1 400Z" fill="#1a1a1a" stroke="#1a1a1a"></path><path d="M816.1 450L817.1 450L801.1 372Z" fill="#1f1f1f" stroke="#1f1f1f"></path><path d="M900 129L900 65L885.1 127Z" fill="#1a1a1a" stroke="#1a1a1a"></path><path d="M900 65L900 52L839.1 25Z" fill="#1f1f1f" stroke="#1f1f1f"></path><path d="M839.1 25L900 0L800.1 0Z" fill="#1d1d1d" stroke="#1d1d1d"></path><path d="M0 306L0 405L71.9 353Z" fill="#272727" stroke="#272727"></path><path d="M900 323L900 317L837.1 357Z" fill="#272727" stroke="#272727"></path><path d="M900 323L837.1 357L849.1 368Z" fill="#1c1c1c" stroke="#1c1c1c"></path><path d="M900 422L900 323L849.1 368Z" fill="#222222" stroke="#222222"></path><path d="M900 52L900 0L839.1 25Z" fill="#1d1d1d" stroke="#1d1d1d"></path><path d="M0 405L2.9 450L89.9 436Z" fill="#272727" stroke="#272727"></path><path d="M89.9 436L2.9 450L138.9 450Z" fill="#1d1d1d" stroke="#1d1d1d"></path><path d="M0 405L0 450L2.9 450Z" fill="#272727" stroke="#272727"></path><path d="M817.1 450L900 422L849.1 368Z" fill="#242424" stroke="#242424"></path><path d="M817.1 450L900 450L900 422Z" fill="#2a2a2a" stroke="#2a2a2a"></path></g></svg>