<svg id="visual" viewBox="0 0 900 600" width="900" height="600" xmlns="http://www.w3.org/2000/svg" xmlns:xlink="http://www.w3.org/1999/xlink" version="1.1"><g stroke-width="1" stroke-linejoin="bevel"><path d="M438 307L360 232L379 361Z" fill="#003500" stroke="#003500"></path><path d="M360 232L261 269L379 361Z" fill="#033d07" stroke="#033d07"></path><path d="M304 206L261 269L360 232Z" fill="#3a8f3a" stroke="#3a8f3a"></path><path d="M438 307L471 179L360 232Z" fill="#226923" stroke="#226923"></path><path d="M360 232L367 125L304 206Z" fill="#003500" stroke="#003500"></path><path d="M261 269L272 422L379 361Z" fill="#226923" stroke="#226923"></path><path d="M479 439L537 262L438 307Z" fill="#287228" stroke="#287228"></path><path d="M438 307L537 262L471 179Z" fill="#226923" stroke="#226923"></path><path d="M471 179L367 125L360 232Z" fill="#0f4e12" stroke="#0f4e12"></path><path d="M429 468L479 439L379 361Z" fill="#2e7c2e" stroke="#2e7c2e"></path><path d="M379 361L479 439L438 307Z" fill="#003500" stroke="#003500"></path><path d="M324 484L429 468L379 361Z" fill="#165717" stroke="#165717"></path><path d="M263 93L237 177L304 206Z" fill="#287228" stroke="#287228"></path><path d="M304 206L237 177L261 269Z" fill="#2e7c2e" stroke="#2e7c2e"></path><path d="M261 269L172 335L272 422Z" fill="#287228" stroke="#287228"></path><path d="M568 132L463 135L471 179Z" fill="#0f4e12" stroke="#0f4e12"></path><path d="M471 179L463 135L367 125Z" fill="#287228" stroke="#287228"></path><path d="M272 422L324 484L379 361Z" fill="#2e7c2e" stroke="#2e7c2e"></path><path d="M115 267L172 335L261 269Z" fill="#1c601d" stroke="#1c601d"></path><path d="M272 422L219 521L324 484Z" fill="#226923" stroke="#226923"></path><path d="M537 262L570 201L471 179Z" fill="#2e7c2e" stroke="#2e7c2e"></path><path d="M638 283L570 201L537 262Z" fill="#348534" stroke="#348534"></path><path d="M429 468L488 484L479 439Z" fill="#08460d" stroke="#08460d"></path><path d="M479 439L623 364L537 262Z" fill="#165717" stroke="#165717"></path><path d="M424 600L488 484L429 468Z" fill="#003500" stroke="#003500"></path><path d="M367 125L263 93L304 206Z" fill="#033d07" stroke="#033d07"></path><path d="M237 177L115 267L261 269Z" fill="#033d07" stroke="#033d07"></path><path d="M338 0L263 93L367 125Z" fill="#165717" stroke="#165717"></path><path d="M172 335L167 415L272 422Z" fill="#226923" stroke="#226923"></path><path d="M570 201L568 132L471 179Z" fill="#0f4e12" stroke="#0f4e12"></path><path d="M410 0L338 0L367 125Z" fill="#033d07" stroke="#033d07"></path><path d="M626 465L623 364L479 439Z" fill="#1c601d" stroke="#1c601d"></path><path d="M570 201L686 163L568 132Z" fill="#08460d" stroke="#08460d"></path><path d="M106 231L115 267L237 177Z" fill="#348534" stroke="#348534"></path><path d="M172 335L107 437L167 415Z" fill="#0f4e12" stroke="#0f4e12"></path><path d="M623 364L638 283L537 262Z" fill="#08460d" stroke="#08460d"></path><path d="M167 415L219 521L272 422Z" fill="#287228" stroke="#287228"></path><path d="M324 484L424 600L429 468Z" fill="#003500" stroke="#003500"></path><path d="M176 73L106 231L237 177Z" fill="#3a8f3a" stroke="#3a8f3a"></path><path d="M185 0L176 73L263 93Z" fill="#165717" stroke="#165717"></path><path d="M263 93L176 73L237 177Z" fill="#165717" stroke="#165717"></path><path d="M410 0L367 125L463 135Z" fill="#1c601d" stroke="#1c601d"></path><path d="M488 0L410 0L463 135Z" fill="#226923" stroke="#226923"></path><path d="M115 267L107 437L172 335Z" fill="#0f4e12" stroke="#0f4e12"></path><path d="M167 415L104 513L219 521Z" fill="#226923" stroke="#226923"></path><path d="M0 392L107 437L115 267Z" fill="#0f4e12" stroke="#0f4e12"></path><path d="M488 484L626 465L479 439Z" fill="#003500" stroke="#003500"></path><path d="M623 364L729 301L638 283Z" fill="#165717" stroke="#165717"></path><path d="M306 600L424 600L324 484Z" fill="#3a8f3a" stroke="#3a8f3a"></path><path d="M488 484L607 600L626 465Z" fill="#348534" stroke="#348534"></path><path d="M202 600L306 600L219 521Z" fill="#2e7c2e" stroke="#2e7c2e"></path><path d="M219 521L306 600L324 484Z" fill="#348534" stroke="#348534"></path><path d="M626 465L665 417L623 364Z" fill="#1c601d" stroke="#1c601d"></path><path d="M568 132L488 0L463 135Z" fill="#226923" stroke="#226923"></path><path d="M424 600L482 600L488 484Z" fill="#08460d" stroke="#08460d"></path><path d="M638 283L686 163L570 201Z" fill="#1c601d" stroke="#1c601d"></path><path d="M568 132L566 0L488 0Z" fill="#226923" stroke="#226923"></path><path d="M729 301L686 163L638 283Z" fill="#1c601d" stroke="#1c601d"></path><path d="M107 437L104 513L167 415Z" fill="#287228" stroke="#287228"></path><path d="M0 507L104 513L107 437Z" fill="#287228" stroke="#287228"></path><path d="M104 513L202 600L219 521Z" fill="#226923" stroke="#226923"></path><path d="M338 0L185 0L263 93Z" fill="#165717" stroke="#165717"></path><path d="M176 73L93 65L106 231Z" fill="#2e7c2e" stroke="#2e7c2e"></path><path d="M676 80L566 0L568 132Z" fill="#0f4e12" stroke="#0f4e12"></path><path d="M665 417L729 301L623 364Z" fill="#1c601d" stroke="#1c601d"></path><path d="M127 0L93 65L176 73Z" fill="#287228" stroke="#287228"></path><path d="M106 231L0 305L115 267Z" fill="#348534" stroke="#348534"></path><path d="M800 92L676 80L686 163Z" fill="#3a8f3a" stroke="#3a8f3a"></path><path d="M686 163L676 80L568 132Z" fill="#348534" stroke="#348534"></path><path d="M0 204L0 305L106 231Z" fill="#0f4e12" stroke="#0f4e12"></path><path d="M626 465L725 475L665 417Z" fill="#08460d" stroke="#08460d"></path><path d="M665 417L791 316L729 301Z" fill="#165717" stroke="#165717"></path><path d="M482 600L607 600L488 484Z" fill="#287228" stroke="#287228"></path><path d="M0 127L0 204L106 231Z" fill="#0f4e12" stroke="#0f4e12"></path><path d="M185 0L127 0L176 73Z" fill="#2e7c2e" stroke="#2e7c2e"></path><path d="M93 65L0 127L106 231Z" fill="#2e7c2e" stroke="#2e7c2e"></path><path d="M0 305L0 392L115 267Z" fill="#033d07" stroke="#033d07"></path><path d="M710 600L725 475L626 465Z" fill="#226923" stroke="#226923"></path><path d="M0 600L107 600L104 513Z" fill="#226923" stroke="#226923"></path><path d="M104 513L107 600L202 600Z" fill="#0f4e12" stroke="#0f4e12"></path><path d="M0 0L0 127L93 65Z" fill="#003500" stroke="#003500"></path><path d="M829 403L791 316L665 417Z" fill="#1c601d" stroke="#1c601d"></path><path d="M729 301L789 207L686 163Z" fill="#0f4e12" stroke="#0f4e12"></path><path d="M791 316L789 207L729 301Z" fill="#003500" stroke="#003500"></path><path d="M0 392L0 507L107 437Z" fill="#226923" stroke="#226923"></path><path d="M607 600L710 600L626 465Z" fill="#348534" stroke="#348534"></path><path d="M725 475L829 403L665 417Z" fill="#348534" stroke="#348534"></path><path d="M710 600L786 486L725 475Z" fill="#287228" stroke="#287228"></path><path d="M800 92L731 0L676 80Z" fill="#08460d" stroke="#08460d"></path><path d="M676 80L731 0L566 0Z" fill="#3a8f3a" stroke="#3a8f3a"></path><path d="M791 316L900 278L789 207Z" fill="#08460d" stroke="#08460d"></path><path d="M786 486L829 403L725 475Z" fill="#003500" stroke="#003500"></path><path d="M789 207L800 92L686 163Z" fill="#2e7c2e" stroke="#2e7c2e"></path><path d="M900 161L800 92L789 207Z" fill="#003500" stroke="#003500"></path><path d="M127 0L0 0L93 65Z" fill="#033d07" stroke="#033d07"></path><path d="M0 507L0 600L104 513Z" fill="#033d07" stroke="#033d07"></path><path d="M710 600L781 600L786 486Z" fill="#0f4e12" stroke="#0f4e12"></path><path d="M900 490L900 436L829 403Z" fill="#287228" stroke="#287228"></path><path d="M900 0L808 0L800 92Z" fill="#165717" stroke="#165717"></path><path d="M800 92L808 0L731 0Z" fill="#003500" stroke="#003500"></path><path d="M900 436L900 278L829 403Z" fill="#2e7c2e" stroke="#2e7c2e"></path><path d="M829 403L900 278L791 316Z" fill="#0f4e12" stroke="#0f4e12"></path><path d="M900 278L900 161L789 207Z" fill="#226923" stroke="#226923"></path><path d="M900 490L829 403L786 486Z" fill="#348534" stroke="#348534"></path><path d="M900 161L900 118L800 92Z" fill="#0f4e12" stroke="#0f4e12"></path><path d="M900 600L900 490L786 486Z" fill="#2e7c2e" stroke="#2e7c2e"></path><path d="M900 118L900 0L800 92Z" fill="#165717" stroke="#165717"></path><path d="M781 600L900 600L786 486Z" fill="#226923" stroke="#226923"></path></g></svg>